<?xml version="1.0" standalone="no"?>
<!DOCTYPE svg PUBLIC "-//W3C//DTD SVG 20010904//EN"
 "http://www.w3.org/TR/2001/REC-SVG-20010904/DTD/svg10.dtd">
<svg version="1.0" xmlns="http://www.w3.org/2000/svg"
 width="128.000000pt" height="128.000000pt" viewBox="0 0 128.000000 128.000000"
 preserveAspectRatio="xMidYMid meet">
<metadata>
Created by potrace 1.14, written by Peter Selinger 2001-2017
</metadata>
<g transform="translate(0.000000,128.000000) scale(0.100000,-0.100000)"
fill="#000000" stroke="none">
<path d="M478 1107 c-16 -6 -28 -15 -28 -20 0 -4 -4 -6 -9 -3 -4 3 -16 -3 -26
-14 -10 -12 -31 -20 -48 -20 -22 0 -40 -11 -69 -41 -33 -35 -38 -45 -33 -72 3
-18 7 -39 8 -47 1 -8 12 -25 25 -38 24 -24 28 -37 13 -46 -5 -3 -7 -15 -4 -25
3 -13 -11 -34 -48 -71 -28 -28 -55 -48 -58 -43 -13 18 -32 12 -41 -13 -6 -15
-19 -38 -29 -53 -10 -14 -16 -32 -14 -38 3 -7 -1 -13 -8 -13 -7 0 -10 -2 -7
-5 3 -3 -3 -40 -13 -83 -29 -119 -27 -129 24 -143 23 -6 47 -15 53 -20 6 -5
24 -10 40 -11 16 -1 34 -4 39 -7 6 -3 17 -6 25 -8 8 -1 23 -6 35 -11 11 -5 54
-17 95 -27 41 -9 82 -19 90 -22 8 -4 23 -5 33 -4 9 1 17 -3 17 -8 0 -6 9 -11
20 -11 11 0 20 -4 20 -8 0 -5 26 -15 58 -22 31 -7 78 -18 104 -25 25 -8 49
-11 52 -8 3 4 6 0 6 -7 0 -7 3 -11 6 -7 3 3 27 -2 53 -13 55 -21 143 -36 140
-24 -1 5 8 32 20 59 13 28 25 68 28 90 3 22 12 52 19 66 7 15 10 29 7 33 -4 3
-2 6 3 6 5 0 10 15 11 33 0 32 -16 46 -91 71 -15 5 -17 9 -8 18 9 9 15 9 23 1
6 -6 18 -9 25 -6 8 3 14 1 14 -4 0 -5 6 -10 13 -10 6 0 29 -4 50 -8 28 -5 37
-4 38 6 4 48 -1 72 -24 122 l-25 55 21 21 c16 15 22 30 20 61 -1 48 -34 170
-45 170 -5 0 -8 6 -8 14 0 8 -9 17 -19 21 -10 3 -24 18 -31 34 -11 28 -60 78
-60 63 0 -4 -5 0 -10 9 -14 25 -121 76 -153 74 -15 -1 -30 2 -33 7 -3 5 -12 4
-20 -3 -8 -6 -14 -8 -14 -5 0 4 -10 0 -22 -8 -26 -18 -68 -21 -68 -5 0 5 -4 8
-9 4 -6 -3 -13 0 -18 7 -9 15 -66 39 -103 43 -14 2 -37 -1 -52 -8z"/>
</g>
</svg>
